<svg xmlns="http://www.w3.org/2000/svg" width="24" height="24" fill="none"><path fill="#FC4308" d="M12 15a3.297 3.297 0 0 0 2.438-1.031.747.747 0 0 1 1.062-.063c.313.281.313.75.031 1.063A4.745 4.745 0 0 1 12 16.5c-1.687 0-2.875-.781-3.562-1.531-.282-.313-.282-.781.03-1.063a.747.747 0 0 1 1.063.063C10 14.469 10.812 15 12 15Zm-1.5-4.5c0 .563-.437 1-1 1-.562 0-1-.437-1-1 0-.531.438-1 1-1 .563 0 1 .469 1 1Zm3 0c0-.531.438-1 1-1 .563 0 1 .469 1 1 0 .563-.437 1-1 1-.562 0-1-.437-1-1ZM20 12c0 4.438-3.594 8-8 8-4.437 0-8-3.562-8-8 0-4.406 3.563-8 8-8 4.406 0 8 3.594 8 8Zm-8-6.5c-3.594 0-6.5 2.938-6.5 6.5 0 3.594 2.906 6.5 6.5 6.5 3.563 0 6.5-2.906 6.5-6.5 0-3.562-2.937-6.5-6.5-6.5Z"/></svg>