<svg width="267" height="38" viewBox="0 0 267 38" fill="none" xmlns="http://www.w3.org/2000/svg">
  <path
    d="M3.75195 1.45312H9.95312L19.084 27.5518L28.2148 1.45312H34.416L21.5742 37H16.5938L3.75195 1.45312ZM0.407227 1.45312H6.58398L7.70703 26.8926V37H0.407227V1.45312ZM31.584 1.45312H37.7852V37H30.4609V26.8926L31.584 1.45312ZM68.0586 31.2871V37H49.1377V31.2871H68.0586ZM51.5303 1.45312V37H44.2061V1.45312H51.5303ZM65.5928 15.9307V21.4971H49.1377V15.9307H65.5928ZM68.0342 1.45312V7.19043H49.1377V1.45312H68.0342ZM100.505 18.4209V32.5078C99.9515 33.1751 99.097 33.8994 97.9414 34.6807C96.7858 35.4456 95.2965 36.1048 93.4736 36.6582C91.6507 37.2116 89.4453 37.4883 86.8574 37.4883C84.5625 37.4883 82.471 37.1139 80.583 36.3652C78.695 35.6003 77.0674 34.4854 75.7002 33.0205C74.3493 31.5557 73.3076 29.7653 72.5752 27.6494C71.8428 25.5173 71.4766 23.084 71.4766 20.3496V18.1279C71.4766 15.3936 71.8265 12.9603 72.5264 10.8281C73.2425 8.69596 74.2598 6.89746 75.5781 5.43262C76.8965 3.96777 78.4671 2.85286 80.29 2.08789C82.113 1.32292 84.1393 0.94043 86.3691 0.94043C89.4616 0.94043 92.0007 1.44499 93.9863 2.4541C95.972 3.44694 97.4857 4.8304 98.5273 6.60449C99.5853 8.3623 100.236 10.3805 100.48 12.6592H93.376C93.1969 11.4548 92.8551 10.4049 92.3506 9.50977C91.846 8.61458 91.1217 7.91471 90.1777 7.41016C89.25 6.9056 88.0456 6.65332 86.5645 6.65332C85.3438 6.65332 84.2533 6.9056 83.293 7.41016C82.349 7.89844 81.5514 8.62272 80.9004 9.58301C80.2493 10.5433 79.7529 11.7314 79.4111 13.1475C79.0693 14.5635 78.8984 16.2074 78.8984 18.0791V20.3496C78.8984 22.2051 79.0775 23.849 79.4355 25.2812C79.7936 26.6973 80.3226 27.8936 81.0225 28.8701C81.7386 29.8304 82.6175 30.5547 83.6592 31.043C84.7008 31.5312 85.9134 31.7754 87.2969 31.7754C88.4525 31.7754 89.4128 31.6777 90.1777 31.4824C90.959 31.2871 91.5856 31.0511 92.0576 30.7744C92.5459 30.4814 92.9202 30.2048 93.1807 29.9443V23.6455H86.4912V18.4209H100.505ZM120.866 7.53223L111.198 37H103.41L116.618 1.45312H121.574L120.866 7.53223ZM128.898 37L119.206 7.53223L118.425 1.45312H123.43L136.711 37H128.898ZM128.459 23.7676V29.5049H109.685V23.7676H128.459ZM139.909 33.6064C139.909 32.5648 140.267 31.694 140.983 30.9941C141.716 30.2943 142.684 29.9443 143.889 29.9443C145.093 29.9443 146.053 30.2943 146.77 30.9941C147.502 31.694 147.868 32.5648 147.868 33.6064C147.868 34.6481 147.502 35.5189 146.77 36.2188C146.053 36.9186 145.093 37.2686 143.889 37.2686C142.684 37.2686 141.716 36.9186 140.983 36.2188C140.267 35.5189 139.909 34.6481 139.909 33.6064ZM160.954 16.2236V37H153.923V10.584H160.515L160.954 16.2236ZM159.929 22.8643H158.024C158.024 20.9111 158.277 19.1533 158.781 17.5908C159.286 16.012 159.994 14.6693 160.905 13.5625C161.817 12.4395 162.899 11.585 164.152 10.999C165.422 10.3968 166.838 10.0957 168.4 10.0957C169.637 10.0957 170.769 10.2747 171.794 10.6328C172.819 10.9909 173.698 11.5605 174.431 12.3418C175.179 13.123 175.749 14.1566 176.14 15.4424C176.547 16.7282 176.75 18.2988 176.75 20.1543V37H169.67V20.1299C169.67 18.958 169.507 18.0465 169.182 17.3955C168.856 16.7445 168.376 16.2887 167.741 16.0283C167.123 15.7516 166.358 15.6133 165.446 15.6133C164.502 15.6133 163.68 15.8005 162.98 16.1748C162.297 16.5492 161.727 17.07 161.271 17.7373C160.832 18.3883 160.498 19.1533 160.271 20.0322C160.043 20.9111 159.929 21.8551 159.929 22.8643ZM194.255 37.4883C192.204 37.4883 190.365 37.1628 188.737 36.5117C187.11 35.8444 185.726 34.9248 184.587 33.7529C183.464 32.5811 182.601 31.222 181.999 29.6758C181.397 28.1133 181.096 26.4531 181.096 24.6953V23.7188C181.096 21.7168 181.381 19.8857 181.95 18.2256C182.52 16.5654 183.334 15.125 184.392 13.9043C185.466 12.6836 186.768 11.7477 188.298 11.0967C189.828 10.4294 191.553 10.0957 193.474 10.0957C195.345 10.0957 197.006 10.4049 198.454 11.0234C199.903 11.6419 201.115 12.5208 202.092 13.6602C203.085 14.7995 203.833 16.1667 204.338 17.7617C204.842 19.3405 205.095 21.0983 205.095 23.0352V25.9648H184.099V21.2773H198.186V20.7402C198.186 19.7637 198.007 18.8929 197.648 18.1279C197.307 17.3467 196.786 16.7282 196.086 16.2725C195.386 15.8167 194.491 15.5889 193.4 15.5889C192.473 15.5889 191.675 15.7923 191.008 16.1992C190.34 16.6061 189.795 17.1758 189.372 17.9082C188.965 18.6406 188.656 19.5033 188.444 20.4961C188.249 21.4727 188.151 22.5469 188.151 23.7188V24.6953C188.151 25.7533 188.298 26.7298 188.591 27.625C188.9 28.5202 189.331 29.2933 189.885 29.9443C190.454 30.5954 191.138 31.0999 191.936 31.458C192.749 31.8161 193.669 31.9951 194.694 31.9951C195.964 31.9951 197.144 31.751 198.234 31.2627C199.341 30.7581 200.293 30.0013 201.091 28.9922L204.509 32.7031C203.955 33.5007 203.199 34.2656 202.238 34.998C201.294 35.7305 200.155 36.3327 198.82 36.8047C197.486 37.2604 195.964 37.4883 194.255 37.4883ZM216.643 30.1641L222.136 10.584H226.604L225.163 18.2744L219.67 37H215.935L216.643 30.1641ZM213.859 10.584L217.79 30.1396L218.156 37H213.762L207.072 10.584H213.859ZM231.633 29.8223L235.466 10.584H242.277L235.588 37H231.218L231.633 29.8223ZM227.214 10.584L232.683 30.0176L233.439 37H229.68L224.187 18.2988L222.795 10.584H227.214ZM260.1 29.7002C260.1 29.1956 259.953 28.7399 259.66 28.333C259.367 27.9261 258.822 27.5518 258.024 27.21C257.243 26.8519 256.112 26.5264 254.631 26.2334C253.296 25.9404 252.051 25.5742 250.896 25.1348C249.756 24.679 248.763 24.1338 247.917 23.499C247.087 22.8643 246.436 22.1156 245.964 21.2529C245.492 20.374 245.256 19.373 245.256 18.25C245.256 17.1432 245.492 16.1016 245.964 15.125C246.452 14.1484 247.144 13.2858 248.039 12.5371C248.951 11.7721 250.057 11.1781 251.359 10.7549C252.678 10.3154 254.159 10.0957 255.803 10.0957C258.098 10.0957 260.067 10.4619 261.711 11.1943C263.371 11.9268 264.641 12.9359 265.52 14.2217C266.415 15.4912 266.862 16.9398 266.862 18.5674H259.831C259.831 17.8838 259.685 17.2734 259.392 16.7363C259.115 16.1829 258.675 15.7516 258.073 15.4424C257.487 15.1169 256.722 14.9541 255.778 14.9541C254.997 14.9541 254.322 15.0924 253.752 15.3691C253.182 15.6296 252.743 15.9876 252.434 16.4434C252.141 16.8828 251.994 17.3711 251.994 17.9082C251.994 18.3151 252.076 18.6813 252.238 19.0068C252.417 19.3161 252.702 19.6009 253.093 19.8613C253.483 20.1217 253.988 20.3659 254.606 20.5938C255.241 20.8053 256.022 21.0007 256.95 21.1797C258.854 21.5703 260.555 22.083 262.053 22.7178C263.55 23.3363 264.738 24.1826 265.617 25.2568C266.496 26.3148 266.936 27.7064 266.936 29.4316C266.936 30.6035 266.675 31.6777 266.154 32.6543C265.633 33.6309 264.885 34.4854 263.908 35.2178C262.932 35.9339 261.76 36.4954 260.393 36.9023C259.042 37.293 257.52 37.4883 255.827 37.4883C253.369 37.4883 251.286 37.0488 249.577 36.1699C247.884 35.291 246.599 34.1761 245.72 32.8252C244.857 31.458 244.426 30.0583 244.426 28.626H251.091C251.123 29.5863 251.368 30.3594 251.823 30.9453C252.295 31.5312 252.889 31.9544 253.605 32.2148C254.338 32.4753 255.127 32.6055 255.974 32.6055C256.885 32.6055 257.642 32.4834 258.244 32.2393C258.846 31.9788 259.302 31.637 259.611 31.2139C259.937 30.7744 260.1 30.2699 260.1 29.7002Z"
    fill="#FC4308"/>
</svg>
