<svg width="16" height="16" viewBox="0 0 16 16" fill="none" xmlns="http://www.w3.org/2000/svg">
  <path
    d="M8 4.60547C9.72266 4.60547 11.1445 6.02734 11.1445 7.75C11.1445 9.5 9.72266 10.8945 8 10.8945C6.25 10.8945 4.85547 9.5 4.85547 7.75C4.85547 6.02734 6.25 4.60547 8 4.60547ZM8 9.80078C9.12109 9.80078 10.0234 8.89844 10.0234 7.75C10.0234 6.62891 9.12109 5.72656 8 5.72656C6.85156 5.72656 5.94922 6.62891 5.94922 7.75C5.94922 8.89844 6.87891 9.80078 8 9.80078ZM11.9922 4.49609C11.9922 4.08594 11.6641 3.75781 11.2539 3.75781C10.8438 3.75781 10.5156 4.08594 10.5156 4.49609C10.5156 4.90625 10.8438 5.23438 11.2539 5.23438C11.6641 5.23438 11.9922 4.90625 11.9922 4.49609ZM14.0703 5.23438C14.125 6.24609 14.125 9.28125 14.0703 10.293C14.0156 11.2773 13.7969 12.125 13.0859 12.8633C12.375 13.5742 11.5 13.793 10.5156 13.8477C9.50391 13.9023 6.46875 13.9023 5.45703 13.8477C4.47266 13.793 3.625 13.5742 2.88672 12.8633C2.17578 12.125 1.95703 11.2773 1.90234 10.293C1.84766 9.28125 1.84766 6.24609 1.90234 5.23438C1.95703 4.25 2.17578 3.375 2.88672 2.66406C3.625 1.95312 4.47266 1.73438 5.45703 1.67969C6.46875 1.625 9.50391 1.625 10.5156 1.67969C11.5 1.73438 12.375 1.95312 13.0859 2.66406C13.7969 3.375 14.0156 4.25 14.0703 5.23438ZM12.7578 11.3594C13.0859 10.5664 13.0039 8.65234 13.0039 7.75C13.0039 6.875 13.0859 4.96094 12.7578 4.14062C12.5391 3.62109 12.1289 3.18359 11.6094 2.99219C10.7891 2.66406 8.875 2.74609 8 2.74609C7.09766 2.74609 5.18359 2.66406 4.39062 2.99219C3.84375 3.21094 3.43359 3.62109 3.21484 4.14062C2.88672 4.96094 2.96875 6.875 2.96875 7.75C2.96875 8.65234 2.88672 10.5664 3.21484 11.3594C3.43359 11.9062 3.84375 12.3164 4.39062 12.5352C5.18359 12.8633 7.09766 12.7812 8 12.7812C8.875 12.7812 10.7891 12.8633 11.6094 12.5352C12.1289 12.3164 12.5664 11.9062 12.7578 11.3594Z"
    fill="currentColor"/>
</svg>
