<svg width="20" height="20" viewBox="-3 -3 26 26" fill="none" xmlns="http://www.w3.org/2000/svg">
  <path
    d="M18.125 2.5C19.1406 2.5 20 3.35938 20 4.375C20 5 19.6875 5.54688 19.2188 5.89844L10.7422 12.2656C10.2734 12.6172 9.6875 12.6172 9.21875 12.2656L0.742188 5.89844C0.273438 5.54688 0 5 0 4.375C0 3.35938 0.820312 2.5 1.875 2.5H18.125ZM8.47656 13.2812C9.375 13.9453 10.5859 13.9453 11.4844 13.2812L20 6.875V15C20 16.4062 18.8672 17.5 17.5 17.5H2.5C1.09375 17.5 0 16.4062 0 15V6.875L8.47656 13.2812Z"
    fill="currentColor"/>
</svg>
