<svg width="20" height="20" viewBox="0 0 20 20" fill="none" xmlns="http://www.w3.org/2000/svg">
  <path
    d="M11.5 11.5H8.5C5.4375 11.5 3 13.9688 3 17C3 17.5625 3.4375 18 4 18H16C16.5312 18 17 17.5625 17 17C17 13.9688 14.5312 11.5 11.5 11.5ZM4.5 16.5C4.75 14.5312 6.4375 13 8.5 13H11.5C13.5312 13 15.2188 14.5312 15.4688 16.5H4.5ZM10 10C12.1875 10 14 8.21875 14 6C14 3.8125 12.1875 2 10 2C7.78125 2 6 3.8125 6 6C6 8.21875 7.78125 10 10 10ZM10 3.5C11.375 3.5 12.5 4.625 12.5 6C12.5 7.40625 11.375 8.5 10 8.5C8.59375 8.5 7.5 7.40625 7.5 6C7.5 4.625 8.59375 3.5 10 3.5Z"
    fill="currentColor"/>
  />
</svg>
